{
  "accessors": [
    {
      "bufferView": 1,
      "componentType": 5126,
      "count": 7618,
      "max": [
        1.5622400045394897,
        0.9704300165176392,
        1.0296499729156494
      ],
      "min": [
        -1.5622400045394897,
        -0.9704300165176392,
        -1.8658299446105957
      ],
      "type": "VEC3"
    },
    {
      "bufferView": 1,
      "byteOffset": 91416,
      "componentType": 5126,
      "count": 7618,
      "max": [
        0.9994029998779297,
        0.9999968409538269,
        1.0
      ],
      "min": [
        -0.9994029998779297,
        -0.9999968409538269,
        -1.0
      ],
      "type": "VEC3"
    },
    {
      "bufferView": 0,
      "componentType": 5125,
      "count": 45696,
      "type": "SCALAR"
    }
  ],
  "asset": {
    "extras": {
      "author": "phenopeia (https://sketchfab.com/phenopeia)",
      "license": "CC-BY-4.0 (http://creativecommons.org/licenses/by/4.0/)",
      "source": "https://sketchfab.com/3d-models/heart-6cd8fdfd28d74baab3e5497105499233",
      "title": "Heart"
    },
    "generator": "Sketchfab-12.64.0",
    "version": "2.0"
  },
  "bufferViews": [
    {
      "buffer": 0,
      "byteLength": 182784,
      "name": "floatBufferViews",
      "target": 34963
    },
    {
      "buffer": 0,
      "byteLength": 182832,
      "byteOffset": 182784,
      "byteStride": 12,
      "name": "floatBufferViews",
      "target": 34962
    }
  ],
  "buffers": [
    {
      "byteLength": 365616,
      "uri": "scene.bin"
    }
  ],
  "materials": [
    {
      "doubleSided": true,
      "name": "Material",
      "pbrMetallicRoughness": {
        "baseColorFactor": [
          0.6028167515268991,
          0.009670253343845017,
          0.009670253343845017,
          1.0
        ],
        "metallicFactor": 0.0,
        "roughnessFactor": 0.6
      }
    }
  ],
  "meshes": [
    {
      "name": "Cube",
      "primitives": [
        {
          "attributes": {
            "NORMAL": 1,
            "POSITION": 0
          },
          "indices": 2,
          "material": 0,
          "mode": 4
        }
      ]
    }
  ],
  "nodes": [
    {
      "children": [
        1
      ],
      "matrix": [
        1.0,
        0.0,
        0.0,
        0.0,
        0.0,
        2.220446049250313e-16,
        -1.0,
        0.0,
        0.0,
        1.0,
        2.220446049250313e-16,
        0.0,
        0.0,
        0.0,
        0.0,
        1.0
      ],
      "name": "Sketchfab_model"
    },
    {
      "children": [
        2,
        4,
        6,
        8
      ],
      "name": "Root"
    },
    {
      "children": [
        3
      ],
      "matrix": [
        -0.29086000000000006,
        0.9551700000000001,
        -0.05519000000000001,
        0.0,
        -0.7711,
        -0.19988000000000003,
        0.6045200000000001,
        0.0,
        0.5663900000000001,
        0.21839000000000003,
        0.7946700000000001,
        0.0,
        4.076250000000001,
        1.00545,
        5.903860000000001,
        1.0
      ],
      "name": "Lamp"
    },
    {
      "name": "Lamp"
    },
    {
      "children": [
        5
      ],
      "matrix": [
        2.6083700000000003,
        0.0,
        0.0,
        0.0,
        0.0,
        2.6083700000000003,
        0.0,
        0.0,
        0.0,
        0.0,
        2.6083700000000003,
        0.0,
        0.0,
        0.0,
        0.0,
        1.0
      ],
      "name": "Cube"
    },
    {
      "mesh": 0,
      "name": "Cube"
    },
    {
      "children": [
        7
      ],
      "matrix": [
        0.7465400000000001,
        0.057240000000000006,
        0.6628800000000001,
        0.0,
        -0.054410000000000014,
        0.9982099999999999,
        -0.024920000000000005,
        0.0,
        -0.6631100000000001,
        -0.017460000000000007,
        0.74831,
        0.0,
        -6.479800000000001,
        -1.2172399999999999,
        6.302499999999999,
        1.0
      ],
      "name": "Sun"
    },
    {
      "name": "Sun"
    },
    {
      "children": [
        9
      ],
      "matrix": [
        1.0,
        0.0,
        0.0,
        0.0,
        0.0,
        1.0,
        0.0,
        0.0,
        0.0,
        0.0,
        1.0,
        0.0,
        4.1732700000000005,
        0.42954000000000003,
        -6.09954,
        1.0
      ],
      "name": "Point"
    },
    {
      "name": "Point"
    }
  ],
  "scene": 0,
  "scenes": [
    {
      "name": "Sketchfab_Scene",
      "nodes": [
        0
      ]
    }
  ]
}
